<svg width="150" height="140" viewBox="0 0 150 140" fill="none" xmlns="http://www.w3.org/2000/svg">
<path d="M65.325 138.225C64.425 137.475 63.525 135.6 63.225 134.025C62.775 131.25 62.925 131.025 70.2 123.75C78.825 115.05 80.775 114.15 84.6 117.375C86.475 118.95 87 120 87 122.1C87 124.5 86.25 125.55 79.65 132.15C73.05 138.75 72 139.5 69.6 139.5C68.1 139.5 66.225 138.9 65.325 138.225Z" fill="#1B3C59"/>
<path d="M83.25 135.375C85.5 133.125 87.4499 131.25 87.5249 131.25C87.6749 131.25 87.75 132.3 87.75 133.5C87.75 136.65 84.825 139.5 81.6 139.5H79.2L83.25 135.375Z" fill="#1B3C59"/>
<path d="M93.675 127.875C91.875 126.9 91.65 126.225 91.35 121.875C91.125 117.75 90.75 116.7 88.875 114.75C87.75 113.55 85.65 112.2 84.3 111.75C81.9 110.925 81.9 110.85 82.2 107.025C82.5 104.175 82.2 102.45 81.225 100.5C79.575 97.35 75.525 94.5 72.675 94.5C70.575 94.5 70.5 94.35 70.5 90.825C70.5 83.025 62.325 78.15 54.675 81.3C53.775 81.675 53.325 81.3 52.95 79.5C52.35 76.35 48.9 73.05 45.3 72.075C40.35 70.725 37.425 72.075 30.45 78.825L24.225 84.75L16.05 76.275C4.12499 64.05 0.749988 56.7 0.674988 42.975C0.674988 19.65 19.65 0.75 43.125 0.75C52.425 0.75 61.65 3.825 68.475 9.225L71.4 11.475L53.025 29.925C32.85 50.175 32.175 51.225 33.825 57.375C34.95 61.35 39.375 65.625 43.425 66.75C48.975 68.25 50.775 67.125 64.35 53.7L76.5 41.625L101.625 66.75C124.5 89.625 126.75 92.1 126.75 94.35C126.75 97.8 123.9 100.5 120.3 100.5C117.6 100.5 116.625 99.675 102.975 86.1C90.6 73.8 88.275 71.775 87.15 72.45C84.15 74.325 85.2 75.75 100.8 91.425C117 107.7 117.375 108.225 115.125 112.425C113.925 114.825 112.65 115.5 109.275 115.5C107.175 115.5 105.075 113.7 91.875 100.5C79.5 88.05 76.575 85.5 75 85.65C70.725 86.175 72.225 88.35 87.225 103.425C95.325 111.525 102.225 119.025 102.675 120.15C103.725 123 102.375 126.525 99.675 127.875C97.125 129.225 96.15 129.225 93.675 127.875Z" fill="#1B3C59"/>
<path d="M52.125 124.875C50.775 123.6 50.25 122.25 50.25 120.3C50.25 117.825 51 116.775 59.1 108.675C64.725 102.975 68.625 99.675 70.05 99.3C72.75 98.625 75.6 100.125 77.175 102.825C79.05 106.275 77.7 108.525 68.325 117.975C60.225 126 59.175 126.75 56.7 126.75C54.75 126.75 53.4 126.225 52.125 124.875Z" fill="#1B3C59"/>
<path d="M39.375 112.125C38.025 110.85 37.5 109.5 37.5 107.475C37.5 104.925 38.25 103.95 47.475 94.725C58.425 83.7 59.55 83.175 63.675 86.7C65.475 88.2 66 89.25 66 91.35C66 93.825 65.175 94.875 56.025 104.025C47.325 112.725 45.75 114 43.65 114C42 114 40.575 113.325 39.375 112.125Z" fill="#1B3C59"/>
<path d="M27.675 100.125C24.9 98.625 23.55 95.1 24.75 92.325C25.2 91.125 28.725 87.075 32.55 83.325C38.775 77.25 39.825 76.5 42.3 76.5C46.05 76.5 48.75 79.2 48.75 82.95C48.75 85.425 48 86.4 42.225 92.4C33.6 101.25 31.65 102.3 27.675 100.125Z" fill="#1B3C59"/>
<path d="M102.375 60C87.075 44.7 77.85 36 76.875 36C75.975 36 70.35 41.025 62.25 49.125C49.8 61.5 48.9 62.25 46.2 62.25C42.15 62.25 38.25 58.35 38.25 54.3C38.25 51.45 39 50.625 60.15 29.55C80.625 9.15004 82.5 7.50004 87.75 5.02504C95.025 1.65004 99.975 0.525042 107.55 0.600042C119.325 0.750042 128.4 4.57504 136.875 13.125C145.5 21.75 149.325 30.75 149.325 42.75C149.4 56.025 145.65 64.275 134.25 75.975L126.375 84.075L102.375 60Z" fill="#1B3C59"/>
</svg>
