<svg width="44" height="48" viewBox="0 0 44 48" fill="none" xmlns="http://www.w3.org/2000/svg">
<g clip-path="url(#clip0_23_492)" filter="url(#filter0_d_23_492)">
<path d="M19.5163 18.8531C18.4278 18.8531 17.5423 19.7388 17.5423 20.8273C17.5423 21.5664 16.943 22.1657 16.2039 22.1657C15.4649 22.1657 14.8654 21.5665 14.8654 20.8273C14.8654 19.7388 13.9799 18.8531 12.8912 18.8531C11.8028 18.8531 10.9172 19.7388 10.9172 20.8273C10.9172 23.4483 14.3143 25.9469 16.2039 27.035C18.0936 25.9469 21.4906 23.4483 21.4906 20.8273C21.4905 19.7388 20.6049 18.8531 19.5163 18.8531Z"/>
<path d="M25.9073 6.0714H6.50019C5.54086 6.0714 4.76025 6.85201 4.76025 7.81134V38.2602C4.76025 39.2195 5.54086 40.0001 6.50019 40.0001H25.9073C26.8666 40.0001 27.6472 39.2195 27.6472 38.2602V7.81121C27.6472 6.85188 26.8666 6.0714 25.9073 6.0714ZM8.95219 9.57418C9.42128 9.57418 9.80175 9.95451 9.80175 10.4237C9.80175 9.95465 10.1821 9.57418 10.6512 9.57418C11.1204 9.57418 11.5009 9.95451 11.5009 10.4237C11.5009 11.8396 9.80189 12.4058 9.80189 12.4058C9.80189 12.4058 8.10289 11.8396 8.10289 10.4237C8.10276 9.95465 8.48309 9.57418 8.95219 9.57418ZM16.2037 29.8951C15.9987 29.8951 15.7936 29.8479 15.6053 29.7538C15.3045 29.6035 8.24013 26.0117 8.24013 20.8273C8.24013 18.2628 10.3266 16.1764 12.8911 16.1764C14.1864 16.1764 15.3596 16.7085 16.2037 17.5657C17.0478 16.7085 18.221 16.1764 19.5163 16.1764C22.0809 16.1764 24.1673 18.2628 24.1673 20.8273C24.1673 26.0117 17.1031 29.6035 16.8022 29.7538C16.6139 29.848 16.4088 29.8951 16.2037 29.8951ZM22.6504 36.8987C22.6504 36.8987 20.9514 36.3325 20.9514 34.9166C20.9514 34.4475 21.3318 34.0671 21.8011 34.0671C22.2701 34.0671 22.6505 34.4474 22.6505 34.9166C22.6505 34.4475 23.0309 34.0671 23.5 34.0671C23.9692 34.0671 24.3497 34.4474 24.3497 34.9166C24.3494 36.3325 22.6504 36.8987 22.6504 36.8987Z"/>
<path d="M39.0006 8.43424C38.7059 7.78157 38.176 7.28339 37.5084 7.0314L19.3539 0.173064C17.9736 -0.348824 16.4257 0.349899 15.9038 1.73091L14.9719 4.19759H25.9072C27.8998 4.19759 29.5208 5.8186 29.5208 7.8112V35.7491L39.0664 10.4815C39.3187 9.81404 39.2952 9.0869 39.0006 8.43424Z"/>
</g>
<defs>
<filter id="filter0_d_23_492" x="-2" y="0" width="48" height="48" filterUnits="userSpaceOnUse" color-interpolation-filters="sRGB">
<feFlood flood-opacity="0" result="BackgroundImageFix"/>
<feColorMatrix in="SourceAlpha" type="matrix" values="0 0 0 0 0 0 0 0 0 0 0 0 0 0 0 0 0 0 127 0" result="hardAlpha"/>
<feOffset dy="4"/>
<feGaussianBlur stdDeviation="2"/>
<feComposite in2="hardAlpha" operator="out"/>
<feColorMatrix type="matrix" values="0 0 0 0 0 0 0 0 0 0 0 0 0 0 0 0 0 0 0.25 0"/>
<feBlend mode="normal" in2="BackgroundImageFix" result="effect1_dropShadow_23_492"/>
<feBlend mode="normal" in="SourceGraphic" in2="effect1_dropShadow_23_492" result="shape"/>
</filter>
<clipPath id="clip0_23_492">
<rect width="40" height="40" fill="white" transform="translate(2)"/>
</clipPath>
</defs>
</svg>
