<svg width="60" height="60" viewBox="0 0 60 60" fill="none" xmlns="http://www.w3.org/2000/svg">
<rect x="1.5" y="1.5" width="57" height="57" rx="18.5" fill="#D94B4B" stroke="#C0392B" stroke-width="3"/>
<path d="M43.6361 38.5961L35.4814 30.4414L43.6361 22.2866C43.7923 22.1285 43.88 21.9151 43.88 21.6928C43.88 21.4704 43.7923 21.257 43.6361 21.0989L39.7838 17.2466C39.706 17.1685 39.6134 17.1064 39.5115 17.0641C39.4096 17.0218 39.3003 17 39.19 17C39.0796 17 38.9703 17.0218 38.8684 17.0641C38.7665 17.1064 38.674 17.1685 38.5961 17.2466L30.4414 25.4014L22.2866 17.2466C22.1291 17.0892 21.9155 17.0007 21.6928 17.0007C21.47 17.0007 21.2564 17.0892 21.0989 17.2466L17.2466 21.0989C17.1685 21.1768 17.1064 21.2693 17.0641 21.3712C17.0218 21.4731 17 21.5824 17 21.6928C17 21.8031 17.0218 21.9124 17.0641 22.0143C17.1064 22.1162 17.1685 22.2088 17.2466 22.2866L25.4014 30.4414L17.2466 38.5961C17.0892 38.7536 17.0007 38.9672 17.0007 39.19C17.0007 39.4127 17.0892 39.6263 17.2466 39.7838L21.0989 43.6361C21.1768 43.7143 21.2693 43.7763 21.3712 43.8186C21.4731 43.8609 21.5824 43.8827 21.6928 43.8827C21.8031 43.8827 21.9124 43.8609 22.0143 43.8186C22.1162 43.7763 22.2088 43.7143 22.2866 43.6361L30.4414 35.4814L38.5961 43.6361C38.7536 43.7936 38.9672 43.882 39.19 43.882C39.4127 43.882 39.6263 43.7936 39.7838 43.6361L43.6361 39.7838C43.7143 39.706 43.7763 39.6134 43.8186 39.5115C43.8609 39.4096 43.8827 39.3003 43.8827 39.19C43.8827 39.0796 43.8609 38.9703 43.8186 38.8684C43.7763 38.7665 43.7143 38.674 43.6361 38.5961Z" fill="white"/>
</svg>
