<svg width="40" height="40" viewBox="0 0 40 40" fill="none" xmlns="http://www.w3.org/2000/svg">
<path d="M27.4908 5.98303C24.2662 5.98303 21.5108 8.28149 19.9969 9.86611C18.4831 8.28149 15.7339 5.98303 12.5108 5.98303C6.9554 5.98303 3.07693 9.85534 3.07693 15.3984C3.07693 21.5061 7.89386 25.4538 12.5539 29.2723C14.7539 31.0769 17.0308 32.9415 18.7769 35.0092C19.0708 35.3553 19.5016 35.5553 19.9539 35.5553H20.0431C20.4969 35.5553 20.9262 35.3538 21.2185 35.0092C22.9677 32.9415 25.2431 31.0753 27.4446 29.2723C32.1031 25.4553 36.9231 21.5076 36.9231 15.3984C36.9231 9.85534 33.0446 5.98303 27.4908 5.98303Z"/>
</svg>
